<?xml version="1.0" encoding="UTF-8"?>
<svg version="1.1" viewBox="0 0 2124 1932" width="531" height="483" xmlns="http://www.w3.org/2000/svg">
<path transform="translate(342,1218)" d="m0 0h1445l31 3 23 4 27 7 26 9 23 10 20 10 20 12 16 11 17 13 14 12 16 15 14 15 9 11 10 13 11 16 8 13 10 18 12 25 10 26 7 25 7 34 3 27 1 15v27l-3 32-5 29-7 28-9 26-9 21-12 24-12 20-10 14-9 12-9 11-10 11-7 8-11 11-8 7-17 14-14 10-15 10-21 12-16 8-17 8-28 10-22 6-23 5-36 6h-1469l-3-2-35-6-32-8-28-10-26-12-19-10-19-12-17-12-16-13-12-11-25-25-9-11-12-15-14-21-10-17-11-21-11-27-10-31-6-26-4-27-2-25v-32l3-31 4-24 6-25 12-36 11-25 12-22 11-18 12-17 18-22 15-16 11-11 8-7 16-13 18-13 19-12 22-12 17-8 23-9 26-8 22-5 16-3 18-2z" fill="#FEFEFE"/>
<path transform="translate(1029)" d="m0 0h59v2h12l33 5 23 5 23 7 27 11 27 13 20 12 15 10 17 13 11 9 12 11 21 21 9 11 11 14 12 17 9 15 9 16 12 25 10 27 7 23 5 23 4 27 2 26v33l-3 31-5 28-7 27-8 23-9 21-9 19-13 23-8 14-8 13-6 11-30 52-22 38-9 16-10 17-15 26-12 21-13 22-16 28-30 52-14 24-30 52-14 24-6 11-14 24-15 26-12 20-6 11-30 52-22 38-8 13-1 1-664 1-30 2-32 5-28 7-24 8-24 10-17 8-21 12-18 12-4 1 2-5 12-21 15-26 14-24 16-28 10-17 28-49 14-24 15-26 14-24 16-28 15-26 12-21 10-17 15-26 12-21 14-24 8-14 14-24 16-28 15-26 10-17 16-28 14-24 16-28 11-19 15-26 12-21 14-24 12-21 10-17 15-26 12-21 14-24 8-14 14-24 16-28 15-26 10-17 16-28 14-24 16-28 14-24 15-26 10-17 9-14 11-15 13-16 7-8 28-28 14-11 13-10 21-14 17-10 24-12 24-10 25-8 30-7 24-4 9-1z" fill="#FEFEFE"/>
<path transform="translate(1509,420)" d="m0 0h2l14 25 13 22 16 28 14 24 16 28 17 29 16 28 15 26 11 19 8 14 11 19 30 52 11 19 14 24 16 28 14 24 13 23 10 17 45 78 14 24 16 28 15 26 12 21 13 22 16 28 15 26 11 19 14 24 13 23 18 30v3l-5-2-14-10-23-13-27-13-24-9-19-6-25-6-24-4-21-2-26-1h-655l2-5 10-18 14-24 13-23 10-17 14-24 16-28 15-26 11-19 14-24 16-28 30-52 14-24 16-28 15-26 12-21 10-17 12-21 15-26 28-48 16-28 15-26 11-19 12-21 15-26 6-10 11-23 8-19 10-30 6-23 2-10z" fill="#FEFEFE"/>
</svg>
